<?xml version="1.0" encoding="iso-8859-1"?>
<!-- Generator: Adobe Illustrator 19.0.0, SVG Export Plug-In . SVG Version: 6.00 Build 0)  -->
<svg version="1.1" id="Layer_1" xmlns="http://www.w3.org/2000/svg" xmlns:xlink="http://www.w3.org/1999/xlink" x="0px" y="0px"
	 viewBox="0 0 512 512" style="enable-background:new 0 0 512 512;" xml:space="preserve">
<g>
	<g>
		<path d="M256,15.63c-50.108,0-90.874,40.766-90.874,90.874c0,50.108,40.766,90.874,90.874,90.874s90.874-40.766,90.874-90.874
			C346.874,56.396,306.108,15.63,256,15.63z M257.286,146.712L216.5,124.383l16.035-29.289l15.518,8.496l26.118-34.495
			l26.622,20.156L257.286,146.712z"/>
	</g>
</g>
<g>
	<g>
		<path d="M390.827,399.048c-26.831,0-48.661,21.829-48.661,48.661s21.829,48.661,48.661,48.661
			c26.832,0,48.661-21.829,48.661-48.661S417.658,399.048,390.827,399.048z"/>
	</g>
</g>
<g>
	<g>
		<path d="M139.13,399.048c-26.831,0-48.661,21.829-48.661,48.661s21.829,48.661,48.661,48.661s48.661-21.829,48.661-48.661
			S165.961,399.048,139.13,399.048z"/>
	</g>
</g>
<g>
	<g>
		<path d="M456.42,325.075l-48.475-97.899h-232.53l-49,98.956H0v138.272h58.79c-1.12-5.393-1.712-10.976-1.712-16.696
			c0-45.244,36.808-82.052,82.052-82.052c45.244,0,82.052,36.808,82.052,82.052c0,5.72-0.592,11.303-1.712,16.696h91.016
			c-1.12-5.393-1.712-10.976-1.712-16.696c0-45.244,36.808-82.052,82.052-82.052s82.052,36.808,82.052,82.052
			c0,5.72-0.592,11.303-1.712,16.696H512v-139.33H456.42z M274.984,325.075H164.198l31.942-64.508h78.844V325.075z M308.375,325.075
			v-64.508h78.844l31.941,64.508H308.375z"/>
	</g>
</g>
<g>
</g>
<g>
</g>
<g>
</g>
<g>
</g>
<g>
</g>
<g>
</g>
<g>
</g>
<g>
</g>
<g>
</g>
<g>
</g>
<g>
</g>
<g>
</g>
<g>
</g>
<g>
</g>
<g>
</g>
</svg>
